<svg xmlns="http://www.w3.org/2000/svg" xmlns:xlink="http://www.w3.org/1999/xlink" contentStyleType="text/css" height="1448px" preserveAspectRatio="none" style="width:1932px;height:1448px;background:#FFFFFF;" version="1.1" viewBox="0 0 1932 1448" width="1932px" zoomAndPan="magnify"><title>&#1057;&#1082;&#1074;&#1086;&#1079;&#1085;&#1086;&#1081; &#1073;&#1080;&#1079;&#1085;&#1077;&#1089;-&#1087;&#1088;&#1086;&#1094;&#1077;&#1089;&#1089; &#1086;&#1087;&#1083;&#1072;&#1090;&#1099; &#1087;&#1086;&#1076;&#1087;&#1080;&#1089;&#1082;&#1080; &#1089; &#1092;&#1080;&#1089;&#1082;&#1072;&#1083;&#1080;&#1079;&#1072;&#1094;&#1080;&#1077;&#1081; (BPMN)</title><defs/><g><text fill="#000000" font-family="sans-serif" font-size="14" font-weight="bold" lengthAdjust="spacing" textLength="564.7305" x="682.5879" y="32.9951">&#1057;&#1082;&#1074;&#1086;&#1079;&#1085;&#1086;&#1081; &#1073;&#1080;&#1079;&#1085;&#1077;&#1089;-&#1087;&#1088;&#1086;&#1094;&#1077;&#1089;&#1089; &#1086;&#1087;&#1083;&#1072;&#1090;&#1099; &#1087;&#1086;&#1076;&#1087;&#1080;&#1089;&#1082;&#1080; &#1089; &#1092;&#1080;&#1089;&#1082;&#1072;&#1083;&#1080;&#1079;&#1072;&#1094;&#1080;&#1077;&#1081; (BPMN)</text><rect fill="#F0F0F0" height="20.9531" style="stroke:#F0F0F0;stroke-width:1.0;" width="1899.9063" x="15" y="50.042"/><rect fill="#FDF1F1" height="1386.9136" style="stroke:#FDF1F1;stroke-width:1.0;" width="231.0117" x="15" y="50.042"/><ellipse cx="131.5059" cy="85.9951" fill="#222222" rx="10" ry="10" style="stroke:#222222;stroke-width:1.0;"/><rect fill="#EAF2FB" height="33.9688" rx="12.5" ry="12.5" style="stroke:#2C6FB5;stroke-width:0.5;" width="207.0078" x="28.002" y="115.9951"/><text fill="#000000" font-family="sans-serif" font-size="12" lengthAdjust="spacing" textLength="187.0078" x="38.002" y="137.1338">&#1042;&#1099;&#1073;&#1080;&#1088;&#1072;&#1077;&#1090; &#1087;&#1086;&#1076;&#1087;&#1080;&#1089;&#1082;&#1091; &#1085;&#1072; &#1082;&#1091;&#1088;&#1089;&#1099;</text><rect fill="#EAF2FB" height="47.9375" rx="12.5" ry="12.5" style="stroke:#2C6FB5;stroke-width:0.5;" width="187.2031" x="37.9043" y="169.9639"/><text fill="#000000" font-family="sans-serif" font-size="12" lengthAdjust="spacing" textLength="142.6758" x="47.9043" y="191.1025">&#1055;&#1086;&#1076;&#1090;&#1074;&#1077;&#1088;&#1078;&#1076;&#1072;&#1077;&#1090; &#1086;&#1087;&#1083;&#1072;&#1090;&#1091;</text><text fill="#000000" font-family="sans-serif" font-size="12" lengthAdjust="spacing" textLength="167.2031" x="47.9043" y="205.0713">(&#1074;&#1074;&#1086;&#1076;&#1080;&#1090; &#1082;&#1072;&#1088;&#1090;&#1091; &#1091; &#1101;&#1082;&#1074;&#1072;&#1081;&#1077;&#1088;&#1072;)</text><rect fill="#EAF2FB" height="33.9688" rx="12.5" ry="12.5" style="stroke:#2C6FB5;stroke-width:0.5;" width="221.0117" x="21" y="1360.9868"/><text fill="#000000" font-family="sans-serif" font-size="12" lengthAdjust="spacing" textLength="201.0117" x="31" y="1382.1255">&#1055;&#1086;&#1083;&#1091;&#1095;&#1072;&#1077;&#1090; &#1076;&#1086;&#1089;&#1090;&#1091;&#1087; &#1080; &#1095;&#1077;&#1082; &#1085;&#1072; email</text><ellipse cx="131.5059" cy="1425.9556" fill="none" rx="11" ry="11" style="stroke:#222222;stroke-width:1.0;"/><ellipse cx="131.5059" cy="1425.9556" fill="#222222" rx="6" ry="6" style="stroke:#222222;stroke-width:1.0;"/><line style="stroke:#999999;stroke-width:1.5;" x1="15" x2="15" y1="50.042" y2="1436.9556"/><rect fill="#E8F5E9" height="1386.9136" style="stroke:#E8F5E9;stroke-width:1.0;" width="329.3032" x="246.0117" y="50.042"/><rect fill="#EAF2FB" height="47.9375" rx="12.5" ry="12.5" style="stroke:#2C6FB5;stroke-width:0.5;" width="225.8516" x="252.0117" y="237.9014"/><text fill="#000000" font-family="sans-serif" font-size="12" lengthAdjust="spacing" textLength="164.4492" x="262.0117" y="259.04">&#1048;&#1085;&#1080;&#1094;&#1080;&#1080;&#1088;&#1091;&#1077;&#1090; &#1086;&#1087;&#1083;&#1072;&#1090;&#1091; &#1074; PGS</text><text fill="#000000" font-family="sans-serif" font-size="12" lengthAdjust="spacing" textLength="205.8516" x="262.0117" y="273.0088">(&#1090;&#1086;&#1082;&#1077;&#1085;, &#1089;&#1091;&#1084;&#1084;&#1072;, Idempotency-Key)</text><rect fill="#EAF2FB" height="47.9375" rx="12.5" ry="12.5" style="stroke:#2C6FB5;stroke-width:0.5;" width="185.9727" x="385.3423" y="723.6201"/><text fill="#000000" font-family="sans-serif" font-size="12" lengthAdjust="spacing" textLength="165.9727" x="395.3423" y="744.7588">&#1055;&#1086;&#1082;&#1072;&#1079;&#1072;&#1090;&#1100; &#1087;&#1088;&#1080;&#1095;&#1080;&#1085;&#1091; &#1086;&#1090;&#1082;&#1072;&#1079;&#1072;,</text><text fill="#000000" font-family="sans-serif" font-size="12" lengthAdjust="spacing" textLength="107.0742" x="395.3423" y="758.7275">&#1076;&#1086;&#1089;&#1090;&#1091;&#1087; &#1085;&#1077; &#1074;&#1099;&#1076;&#1072;&#1085;</text><ellipse cx="478.3286" cy="802.5576" fill="none" rx="11" ry="11" style="stroke:#222222;stroke-width:1.0;"/><ellipse cx="478.3286" cy="802.5576" fill="#222222" rx="6" ry="6" style="stroke:#222222;stroke-width:1.0;"/><rect fill="#EAF2FB" height="33.9688" rx="12.5" ry="12.5" style="stroke:#2C6FB5;stroke-width:0.5;" width="197.4102" x="266.2324" y="1307.0181"/><text fill="#000000" font-family="sans-serif" font-size="12" lengthAdjust="spacing" textLength="177.4102" x="276.2324" y="1328.1567">&#1054;&#1090;&#1082;&#1088;&#1099;&#1074;&#1072;&#1077;&#1090; &#1076;&#1086;&#1089;&#1090;&#1091;&#1087; &#1082; &#1082;&#1091;&#1088;&#1089;&#1072;&#1084;</text><line style="stroke:#999999;stroke-width:1.5;" x1="246.0117" x2="246.0117" y1="50.042" y2="1436.9556"/><rect fill="#EAF2FB" height="1386.9136" style="stroke:#EAF2FB;stroke-width:1.0;" width="456.4946" x="575.3149" y="50.042"/><rect fill="#EAF2FB" height="33.9688" rx="12.5" ry="12.5" style="stroke:#2C6FB5;stroke-width:0.5;" width="204.5059" x="706.249" y="305.8389"/><text fill="#000000" font-family="sans-serif" font-size="12" lengthAdjust="spacing" textLength="184.5059" x="716.249" y="326.9775">&#1055;&#1088;&#1086;&#1074;&#1077;&#1088;&#1080;&#1090;&#1100; &#1080;&#1076;&#1077;&#1084;&#1087;&#1086;&#1090;&#1077;&#1085;&#1090;&#1085;&#1086;&#1089;&#1090;&#1100;</text><polygon fill="#FFF6E0" points="744.6477,359.8076,872.3562,359.8076,884.3562,371.8076,872.3562,383.8076,744.6477,383.8076,732.6477,371.8076,744.6477,359.8076" style="stroke:#C8902A;stroke-width:0.5;"/><text fill="#000000" font-family="sans-serif" font-size="11" lengthAdjust="spacing" textLength="127.7085" x="744.6477" y="375.6157">&#1050;&#1083;&#1102;&#1095; &#1091;&#1078;&#1077; &#1086;&#1073;&#1088;&#1072;&#1073;&#1086;&#1090;&#1072;&#1085;?</text><text fill="#000000" font-family="sans-serif" font-size="11" lengthAdjust="spacing" textLength="14.3462" x="718.3015" y="369.2134">&#1076;&#1072;</text><text fill="#000000" font-family="sans-serif" font-size="11" lengthAdjust="spacing" textLength="20.3672" x="884.3562" y="369.2134">&#1085;&#1077;&#1090;</text><rect fill="#EAF2FB" height="33.9688" rx="12.5" ry="12.5" style="stroke:#2C6FB5;stroke-width:0.5;" width="201.5293" x="594.3799" y="393.8076"/><text fill="#000000" font-family="sans-serif" font-size="12" lengthAdjust="spacing" textLength="181.5293" x="604.3799" y="414.9463">&#1042;&#1077;&#1088;&#1085;&#1091;&#1090;&#1100; &#1087;&#1088;&#1077;&#1078;&#1085;&#1080;&#1081; &#1088;&#1077;&#1079;&#1091;&#1083;&#1100;&#1090;&#1072;&#1090;</text><ellipse cx="695.1445" cy="472.7451" fill="none" rx="11" ry="11" style="stroke:#222222;stroke-width:1.0;"/><ellipse cx="695.1445" cy="472.7451" fill="#222222" rx="6" ry="6" style="stroke:#222222;stroke-width:1.0;"/><rect fill="#EAF2FB" height="47.9375" rx="12.5" ry="12.5" style="stroke:#2C6FB5;stroke-width:0.5;" width="211.9004" x="815.9092" y="393.8076"/><text fill="#000000" font-family="sans-serif" font-size="12" lengthAdjust="spacing" textLength="191.9004" x="825.9092" y="414.9463">&#1057;&#1086;&#1093;&#1088;&#1072;&#1085;&#1080;&#1090;&#1100; &#1087;&#1083;&#1072;&#1090;&#1105;&#1078; = PENDING</text><text fill="#000000" font-family="sans-serif" font-size="12" lengthAdjust="spacing" textLength="124.7988" x="825.9092" y="428.915">(+ &#1079;&#1072;&#1087;&#1080;&#1089;&#1100; &#1074; Outbox)</text><rect fill="#EAF2FB" height="47.9375" rx="12.5" ry="12.5" style="stroke:#2C6FB5;stroke-width:0.5;" width="155.3105" x="730.8467" y="503.7451"/><text fill="#000000" font-family="sans-serif" font-size="12" lengthAdjust="spacing" textLength="107.4492" x="740.8467" y="524.8838">&#1042;&#1099;&#1079;&#1074;&#1072;&#1090;&#1100; &#1101;&#1082;&#1074;&#1072;&#1081;&#1077;&#1088;</text><text fill="#000000" font-family="sans-serif" font-size="12" lengthAdjust="spacing" textLength="135.3105" x="740.8467" y="538.8525">(&#1089;&#1087;&#1080;&#1089;&#1072;&#1085;&#1080;&#1077; &#1087;&#1086; &#1090;&#1086;&#1082;&#1077;&#1085;&#1091;)</text><rect fill="#EAF2FB" height="33.9688" rx="12.5" ry="12.5" style="stroke:#2C6FB5;stroke-width:0.5;" width="161.2988" x="614.4614" y="669.6514"/><text fill="#000000" font-family="sans-serif" font-size="12" lengthAdjust="spacing" textLength="141.2988" x="624.4614" y="690.79">&#1055;&#1083;&#1072;&#1090;&#1105;&#1078; = SUCCEEDED</text><rect fill="#EAF2FB" height="47.9375" rx="12.5" ry="12.5" style="stroke:#2C6FB5;stroke-width:0.5;" width="211.8242" x="589.1987" y="723.6201"/><text fill="#000000" font-family="sans-serif" font-size="12" lengthAdjust="spacing" textLength="191.8242" x="599.1987" y="744.7588">&#1057;&#1086;&#1079;&#1076;&#1072;&#1090;&#1100; &#1087;&#1086;&#1076;&#1087;&#1080;&#1089;&#1082;&#1091; / &#1087;&#1088;&#1086;&#1076;&#1083;&#1080;&#1090;&#1100;,</text><text fill="#000000" font-family="sans-serif" font-size="12" lengthAdjust="spacing" textLength="106.3418" x="599.1987" y="758.7275">&#1089;&#1086;&#1093;&#1088;&#1072;&#1085;&#1080;&#1090;&#1100; &#1090;&#1086;&#1082;&#1077;&#1085;</text><rect fill="#EAF2FB" height="33.9688" rx="12.5" ry="12.5" style="stroke:#2C6FB5;stroke-width:0.5;" width="227.5918" x="581.3149" y="791.5576"/><text fill="#000000" font-family="sans-serif" font-size="12" lengthAdjust="spacing" textLength="207.5918" x="591.3149" y="812.6963">&#1055;&#1091;&#1073;&#1083;&#1080;&#1082;&#1086;&#1074;&#1072;&#1090;&#1100; payment.succeeded</text><rect fill="#EAF2FB" height="33.9688" rx="12.5" ry="12.5" style="stroke:#2C6FB5;stroke-width:0.5;" width="148.1387" x="847.8237" y="669.6514"/><text fill="#000000" font-family="sans-serif" font-size="12" lengthAdjust="spacing" textLength="128.1387" x="857.8237" y="690.79">&#1055;&#1083;&#1072;&#1090;&#1105;&#1078; = DECLINED</text><line style="stroke:#999999;stroke-width:1.5;" x1="575.3149" x2="575.3149" y1="50.042" y2="1436.9556"/><rect fill="#F3E5F5" height="1386.9136" style="stroke:#F3E5F5;stroke-width:1.0;" width="218.3145" x="1031.8096" y="50.042"/><rect fill="#EAF2FB" height="33.9688" rx="12.5" ry="12.5" style="stroke:#2C6FB5;stroke-width:0.5;" width="208.3145" x="1037.8096" y="571.6826"/><text fill="#000000" font-family="sans-serif" font-size="12" lengthAdjust="spacing" textLength="188.3145" x="1047.8096" y="592.8213">&#1055;&#1088;&#1086;&#1074;&#1086;&#1076;&#1080;&#1090; &#1086;&#1087;&#1077;&#1088;&#1072;&#1094;&#1080;&#1102; &#1087;&#1086; &#1082;&#1072;&#1088;&#1090;&#1077;</text><polygon fill="#FFF6E0" points="1080.7363,625.6514,1203.1973,625.6514,1215.1973,637.6514,1203.1973,649.6514,1080.7363,649.6514,1068.7363,637.6514,1080.7363,625.6514" style="stroke:#C8902A;stroke-width:0.5;"/><text fill="#000000" font-family="sans-serif" font-size="11" lengthAdjust="spacing" textLength="122.4609" x="1080.7363" y="641.4595">&#1054;&#1087;&#1077;&#1088;&#1072;&#1094;&#1080;&#1103; &#1086;&#1076;&#1086;&#1073;&#1088;&#1077;&#1085;&#1072;?</text><text fill="#000000" font-family="sans-serif" font-size="11" lengthAdjust="spacing" textLength="14.3462" x="1054.3901" y="635.0571">&#1076;&#1072;</text><text fill="#000000" font-family="sans-serif" font-size="11" lengthAdjust="spacing" textLength="20.3672" x="1215.1973" y="635.0571">&#1085;&#1077;&#1090;</text><line style="stroke:#999999;stroke-width:1.5;" x1="1031.8096" x2="1031.8096" y1="50.042" y2="1436.9556"/><rect fill="#EAF2FB" height="1386.9136" style="stroke:#EAF2FB;stroke-width:1.0;" width="440.2837" x="1250.124" y="50.042"/><rect fill="#EAF2FB" height="47.9375" rx="12.5" ry="12.5" style="stroke:#2C6FB5;stroke-width:0.5;" width="196.6016" x="1383.9819" y="845.5264"/><text fill="#000000" font-family="sans-serif" font-size="12" lengthAdjust="spacing" textLength="176.6016" x="1393.9819" y="866.665">&#1057;&#1092;&#1086;&#1088;&#1084;&#1080;&#1088;&#1086;&#1074;&#1072;&#1090;&#1100; &#1095;&#1077;&#1082; &#1087;&#1088;&#1080;&#1093;&#1086;&#1076;&#1072;</text><text fill="#000000" font-family="sans-serif" font-size="12" lengthAdjust="spacing" textLength="155.5488" x="1393.9819" y="880.6338">(&#1087;&#1086;&#1079;&#1080;&#1094;&#1080;&#1080;, &#1053;&#1044;&#1057;, &#1082;&#1086;&#1085;&#1090;&#1072;&#1082;&#1090;)</text><rect fill="#EAF2FB" height="33.9688" rx="12.5" ry="12.5" style="stroke:#2C6FB5;stroke-width:0.5;" width="157.5723" x="1403.4966" y="913.4639"/><text fill="#000000" font-family="sans-serif" font-size="12" lengthAdjust="spacing" textLength="137.5723" x="1413.4966" y="934.6025">&#1054;&#1090;&#1087;&#1088;&#1072;&#1074;&#1080;&#1090;&#1100; &#1095;&#1077;&#1082; &#1074; &#1054;&#1060;&#1044;</text><polygon fill="#FFF6E0" points="1417.1475,1065.4014,1547.418,1065.4014,1559.418,1077.4014,1547.418,1089.4014,1417.1475,1089.4014,1405.1475,1077.4014,1417.1475,1065.4014" style="stroke:#C8902A;stroke-width:0.5;"/><text fill="#000000" font-family="sans-serif" font-size="11" lengthAdjust="spacing" textLength="130.2705" x="1417.1475" y="1081.2095">&#1063;&#1077;&#1082; &#1079;&#1072;&#1088;&#1077;&#1075;&#1080;&#1089;&#1090;&#1088;&#1080;&#1088;&#1086;&#1074;&#1072;&#1085;?</text><text fill="#000000" font-family="sans-serif" font-size="11" lengthAdjust="spacing" textLength="14.3462" x="1390.8013" y="1074.8071">&#1076;&#1072;</text><text fill="#000000" font-family="sans-serif" font-size="11" lengthAdjust="spacing" textLength="125.9897" x="1559.418" y="1074.8071">&#1085;&#1077;&#1090;, &#1054;&#1060;&#1044; &#1085;&#1077;&#1076;&#1086;&#1089;&#1090;&#1091;&#1087;&#1077;&#1085;</text><rect fill="#EAF2FB" height="33.9688" rx="12.5" ry="12.5" style="stroke:#2C6FB5;stroke-width:0.5;" width="233.5039" x="1256.124" y="1099.4014"/><text fill="#000000" font-family="sans-serif" font-size="12" lengthAdjust="spacing" textLength="213.5039" x="1266.124" y="1120.54">&#1063;&#1077;&#1082; = REGISTERED, &#1089;&#1086;&#1093;&#1088;&#1072;&#1085;&#1080;&#1090;&#1100; &#1060;&#1055;</text><rect fill="#EAF2FB" height="33.9688" rx="12.5" ry="12.5" style="stroke:#2C6FB5;stroke-width:0.5;" width="213.1953" x="1266.2783" y="1167.3389"/><text fill="#000000" font-family="sans-serif" font-size="12" lengthAdjust="spacing" textLength="193.1953" x="1276.2783" y="1188.4775">&#1055;&#1091;&#1073;&#1083;&#1080;&#1082;&#1086;&#1074;&#1072;&#1090;&#1100; receipt.registered</text><rect fill="#EAF2FB" height="47.9375" rx="12.5" ry="12.5" style="stroke:#2C6FB5;stroke-width:0.5;" width="164.123" x="1509.6279" y="1099.4014"/><text fill="#000000" font-family="sans-serif" font-size="12" lengthAdjust="spacing" textLength="144.123" x="1519.6279" y="1120.54">&#1063;&#1077;&#1082; = PENDING_RETRY,</text><text fill="#000000" font-family="sans-serif" font-size="12" lengthAdjust="spacing" textLength="102.7441" x="1519.6279" y="1134.5088">&#1087;&#1086;&#1074;&#1090;&#1086;&#1088; &#1089; backoff</text><polygon fill="#FFF6E0" points="1482.2827,1207.3076,1494.2827,1219.3076,1482.2827,1231.3076,1470.2827,1219.3076,1482.2827,1207.3076" style="stroke:#C8902A;stroke-width:0.5;"/><line style="stroke:#999999;stroke-width:1.5;" x1="1250.124" x2="1250.124" y1="50.042" y2="1436.9556"/><rect fill="#FFF3E0" height="1386.9136" style="stroke:#FFF3E0;stroke-width:1.0;" width="222.6377" x="1690.4077" y="50.042"/><rect fill="#EAF2FB" height="33.9688" rx="12.5" ry="12.5" style="stroke:#2C6FB5;stroke-width:0.5;" width="132.3535" x="1716.3662" y="1011.4326"/><text fill="#000000" font-family="sans-serif" font-size="12" lengthAdjust="spacing" textLength="112.3535" x="1726.3662" y="1032.5713">&#1056;&#1077;&#1075;&#1080;&#1089;&#1090;&#1088;&#1080;&#1088;&#1091;&#1077;&#1090; &#1095;&#1077;&#1082;</text><polygon fill="#FFF6E0" points="1782.543,967.4326,1794.543,979.4326,1782.543,991.4326,1770.543,979.4326,1782.543,967.4326" style="stroke:#C8902A;stroke-width:0.5;"/><polygon fill="#FFF6E0" points="1717.4077,1251.3076,1847.6782,1251.3076,1859.6782,1263.3076,1847.6782,1275.3076,1717.4077,1275.3076,1705.4077,1263.3076,1717.4077,1251.3076" style="stroke:#C8902A;stroke-width:0.5;"/><text fill="#000000" font-family="sans-serif" font-size="11" lengthAdjust="spacing" textLength="14.3462" x="1786.543" y="1285.5181">&#1076;&#1072;</text><text fill="#000000" font-family="sans-serif" font-size="11" lengthAdjust="spacing" textLength="130.2705" x="1717.4077" y="1267.1157">&#1063;&#1077;&#1082; &#1079;&#1072;&#1088;&#1077;&#1075;&#1080;&#1089;&#1090;&#1088;&#1080;&#1088;&#1086;&#1074;&#1072;&#1085;?</text><text fill="#000000" font-family="sans-serif" font-size="11" lengthAdjust="spacing" textLength="20.3672" x="1859.6782" y="1260.7134">&#1085;&#1077;&#1090;</text><line style="stroke:#999999;stroke-width:1.5;" x1="1690.4077" x2="1690.4077" y1="50.042" y2="1436.9556"/><line style="stroke:#999999;stroke-width:1.5;" x1="1913.0454" x2="1913.0454" y1="50.042" y2="1436.9556"/><line style="stroke:#181818;stroke-width:1.0;" x1="131.5059" x2="131.5059" y1="95.9951" y2="115.9951"/><polygon fill="#181818" points="127.5059,105.9951,131.5059,115.9951,135.5059,105.9951,131.5059,109.9951" style="stroke:#181818;stroke-width:1.0;"/><line style="stroke:#181818;stroke-width:1.0;" x1="131.5059" x2="131.5059" y1="149.9639" y2="169.9639"/><polygon fill="#181818" points="127.5059,159.9639,131.5059,169.9639,135.5059,159.9639,131.5059,163.9639" style="stroke:#181818;stroke-width:1.0;"/><line style="stroke:#181818;stroke-width:1.0;" x1="131.5059" x2="131.5059" y1="1394.9556" y2="1414.9556"/><polygon fill="#181818" points="127.5059,1404.9556,131.5059,1414.9556,135.5059,1404.9556,131.5059,1408.9556" style="stroke:#181818;stroke-width:1.0;"/><line style="stroke:#181818;stroke-width:1.0;" x1="478.3286" x2="478.3286" y1="771.5576" y2="791.5576"/><polygon fill="#181818" points="474.3286,781.5576,478.3286,791.5576,482.3286,781.5576,478.3286,785.5576" style="stroke:#181818;stroke-width:1.0;"/><line style="stroke:#181818;stroke-width:1.0;" x1="695.1445" x2="695.1445" y1="427.7764" y2="461.7451"/><polygon fill="#181818" points="691.1445,451.7451,695.1445,461.7451,699.1445,451.7451,695.1445,455.7451" style="stroke:#181818;stroke-width:1.0;"/><line style="stroke:#181818;stroke-width:1.0;" x1="732.6477" x2="695.1445" y1="371.8076" y2="371.8076"/><line style="stroke:#181818;stroke-width:1.0;" x1="695.1445" x2="695.1445" y1="371.8076" y2="393.8076"/><polygon fill="#181818" points="691.1445,383.8076,695.1445,393.8076,699.1445,383.8076,695.1445,387.8076" style="stroke:#181818;stroke-width:1.0;"/><line style="stroke:#181818;stroke-width:1.0;" x1="884.3562" x2="921.8594" y1="371.8076" y2="371.8076"/><line style="stroke:#181818;stroke-width:1.0;" x1="921.8594" x2="921.8594" y1="371.8076" y2="393.8076"/><polygon fill="#181818" points="917.8594,383.8076,921.8594,393.8076,925.8594,383.8076,921.8594,387.8076" style="stroke:#181818;stroke-width:1.0;"/><line style="stroke:#181818;stroke-width:1.0;" x1="921.8594" x2="921.8594" y1="441.7451" y2="488.7451"/><line style="stroke:#181818;stroke-width:1.0;" x1="921.8594" x2="808.502" y1="488.7451" y2="488.7451"/><line style="stroke:#181818;stroke-width:1.0;" x1="808.502" x2="808.502" y1="488.7451" y2="503.7451"/><polygon fill="#181818" points="804.502,493.7451,808.502,503.7451,812.502,493.7451,808.502,497.7451" style="stroke:#181818;stroke-width:1.0;"/><line style="stroke:#181818;stroke-width:1.0;" x1="808.502" x2="808.502" y1="339.8076" y2="359.8076"/><polygon fill="#181818" points="804.502,349.8076,808.502,359.8076,812.502,349.8076,808.502,353.8076" style="stroke:#181818;stroke-width:1.0;"/><line style="stroke:#181818;stroke-width:1.0;" x1="695.1108" x2="695.1108" y1="703.6201" y2="723.6201"/><polygon fill="#181818" points="691.1108,713.6201,695.1108,723.6201,699.1108,713.6201,695.1108,717.6201" style="stroke:#181818;stroke-width:1.0;"/><line style="stroke:#181818;stroke-width:1.0;" x1="695.1108" x2="695.1108" y1="771.5576" y2="791.5576"/><polygon fill="#181818" points="691.1108,781.5576,695.1108,791.5576,699.1108,781.5576,695.1108,785.5576" style="stroke:#181818;stroke-width:1.0;"/><line style="stroke:#181818;stroke-width:1.0;" x1="1141.9668" x2="1141.9668" y1="605.6514" y2="625.6514"/><polygon fill="#181818" points="1137.9668,615.6514,1141.9668,625.6514,1145.9668,615.6514,1141.9668,619.6514" style="stroke:#181818;stroke-width:1.0;"/><line style="stroke:#181818;stroke-width:1.0;" x1="1482.2827" x2="1482.2827" y1="893.4639" y2="913.4639"/><polygon fill="#181818" points="1478.2827,903.4639,1482.2827,913.4639,1486.2827,903.4639,1482.2827,907.4639" style="stroke:#181818;stroke-width:1.0;"/><line style="stroke:#181818;stroke-width:1.0;" x1="1372.876" x2="1372.876" y1="1133.3701" y2="1167.3389"/><polygon fill="#181818" points="1368.876,1157.3389,1372.876,1167.3389,1376.876,1157.3389,1372.876,1161.3389" style="stroke:#181818;stroke-width:1.0;"/><line style="stroke:#181818;stroke-width:1.0;" x1="1405.1475" x2="1372.876" y1="1077.4014" y2="1077.4014"/><line style="stroke:#181818;stroke-width:1.0;" x1="1372.876" x2="1372.876" y1="1077.4014" y2="1099.4014"/><polygon fill="#181818" points="1368.876,1089.4014,1372.876,1099.4014,1376.876,1089.4014,1372.876,1093.4014" style="stroke:#181818;stroke-width:1.0;"/><line style="stroke:#181818;stroke-width:1.0;" x1="1559.418" x2="1591.6895" y1="1077.4014" y2="1077.4014"/><line style="stroke:#181818;stroke-width:1.0;" x1="1591.6895" x2="1591.6895" y1="1077.4014" y2="1099.4014"/><polygon fill="#181818" points="1587.6895,1089.4014,1591.6895,1099.4014,1595.6895,1089.4014,1591.6895,1093.4014" style="stroke:#181818;stroke-width:1.0;"/><line style="stroke:#181818;stroke-width:1.0;" x1="1372.876" x2="1372.876" y1="1201.3076" y2="1219.3076"/><line style="stroke:#181818;stroke-width:1.0;" x1="1372.876" x2="1470.2827" y1="1219.3076" y2="1219.3076"/><polygon fill="#181818" points="1460.2827,1215.3076,1470.2827,1219.3076,1460.2827,1223.3076,1464.2827,1219.3076" style="stroke:#181818;stroke-width:1.0;"/><line style="stroke:#181818;stroke-width:1.0;" x1="1591.6895" x2="1591.6895" y1="1147.3389" y2="1219.3076"/><line style="stroke:#181818;stroke-width:1.0;" x1="1591.6895" x2="1494.2827" y1="1219.3076" y2="1219.3076"/><polygon fill="#181818" points="1504.2827,1215.3076,1494.2827,1219.3076,1504.2827,1223.3076,1500.2827,1219.3076" style="stroke:#181818;stroke-width:1.0;"/><line style="stroke:#181818;stroke-width:1.0;" x1="1782.543" x2="1782.543" y1="991.4326" y2="1011.4326"/><polygon fill="#181818" points="1778.543,1001.4326,1782.543,1011.4326,1786.543,1001.4326,1782.543,1005.4326" style="stroke:#181818;stroke-width:1.0;"/><line style="stroke:#181818;stroke-width:1.0;" x1="1859.6782" x2="1894.0454" y1="1263.3076" y2="1263.3076"/><polygon fill="#181818" points="1890.0454,1124.3857,1894.0454,1114.3857,1898.0454,1124.3857,1894.0454,1120.3857" style="stroke:#181818;stroke-width:1.0;"/><line style="stroke:#181818;stroke-width:1.0;" x1="1894.0454" x2="1894.0454" y1="979.4326" y2="1263.3076"/><line style="stroke:#181818;stroke-width:1.0;" x1="1894.0454" x2="1794.543" y1="979.4326" y2="979.4326"/><polygon fill="#181818" points="1804.543,975.4326,1794.543,979.4326,1804.543,983.4326,1800.543,979.4326" style="stroke:#181818;stroke-width:1.0;"/><line style="stroke:#181818;stroke-width:1.0;" x1="131.5059" x2="131.5059" y1="217.9014" y2="222.9014"/><line style="stroke:#181818;stroke-width:1.0;" x1="131.5059" x2="364.9375" y1="222.9014" y2="222.9014"/><line style="stroke:#181818;stroke-width:1.0;" x1="364.9375" x2="364.9375" y1="222.9014" y2="237.9014"/><polygon fill="#181818" points="360.9375,227.9014,364.9375,237.9014,368.9375,227.9014,364.9375,231.9014" style="stroke:#181818;stroke-width:1.0;"/><line style="stroke:#181818;stroke-width:1.0;" x1="364.9375" x2="364.9375" y1="285.8389" y2="290.8389"/><line style="stroke:#181818;stroke-width:1.0;" x1="364.9375" x2="808.502" y1="290.8389" y2="290.8389"/><line style="stroke:#181818;stroke-width:1.0;" x1="808.502" x2="808.502" y1="290.8389" y2="305.8389"/><polygon fill="#181818" points="804.502,295.8389,808.502,305.8389,812.502,295.8389,808.502,299.8389" style="stroke:#181818;stroke-width:1.0;"/><line style="stroke:#181818;stroke-width:1.0;" x1="808.502" x2="808.502" y1="551.6826" y2="556.6826"/><line style="stroke:#181818;stroke-width:1.0;" x1="808.502" x2="1141.9668" y1="556.6826" y2="556.6826"/><line style="stroke:#181818;stroke-width:1.0;" x1="1141.9668" x2="1141.9668" y1="556.6826" y2="571.6826"/><polygon fill="#181818" points="1137.9668,561.6826,1141.9668,571.6826,1145.9668,561.6826,1141.9668,565.6826" style="stroke:#181818;stroke-width:1.0;"/><line style="stroke:#181818;stroke-width:1.0;" x1="921.8931" x2="921.8931" y1="703.6201" y2="708.6201"/><line style="stroke:#181818;stroke-width:1.0;" x1="921.8931" x2="478.3286" y1="708.6201" y2="708.6201"/><line style="stroke:#181818;stroke-width:1.0;" x1="478.3286" x2="478.3286" y1="708.6201" y2="723.6201"/><polygon fill="#181818" points="474.3286,713.6201,478.3286,723.6201,482.3286,713.6201,478.3286,717.6201" style="stroke:#181818;stroke-width:1.0;"/><line style="stroke:#181818;stroke-width:1.0;" x1="1068.7363" x2="695.1108" y1="637.6514" y2="637.6514"/><line style="stroke:#181818;stroke-width:1.0;" x1="695.1108" x2="695.1108" y1="637.6514" y2="669.6514"/><polygon fill="#181818" points="691.1108,659.6514,695.1108,669.6514,699.1108,659.6514,695.1108,663.6514" style="stroke:#181818;stroke-width:1.0;"/><line style="stroke:#181818;stroke-width:1.0;" x1="1215.1973" x2="1227.1973" y1="637.6514" y2="637.6514"/><line style="stroke:#181818;stroke-width:1.0;" x1="1227.1973" x2="1227.1973" y1="637.6514" y2="655.6514"/><line style="stroke:#181818;stroke-width:1.0;" x1="1227.1973" x2="921.8931" y1="655.6514" y2="655.6514"/><line style="stroke:#181818;stroke-width:1.0;" x1="921.8931" x2="921.8931" y1="655.6514" y2="669.6514"/><polygon fill="#181818" points="917.8931,659.6514,921.8931,669.6514,925.8931,659.6514,921.8931,663.6514" style="stroke:#181818;stroke-width:1.0;"/><line style="stroke:#181818;stroke-width:1.0;" x1="695.1108" x2="695.1108" y1="825.5264" y2="830.5264"/><line style="stroke:#181818;stroke-width:1.0;" x1="695.1108" x2="1482.2827" y1="830.5264" y2="830.5264"/><line style="stroke:#181818;stroke-width:1.0;" x1="1482.2827" x2="1482.2827" y1="830.5264" y2="845.5264"/><polygon fill="#181818" points="1478.2827,835.5264,1482.2827,845.5264,1486.2827,835.5264,1482.2827,839.5264" style="stroke:#181818;stroke-width:1.0;"/><line style="stroke:#181818;stroke-width:1.0;" x1="1782.543" x2="1782.543" y1="1045.4014" y2="1050.4014"/><line style="stroke:#181818;stroke-width:1.0;" x1="1782.543" x2="1482.2827" y1="1050.4014" y2="1050.4014"/><line style="stroke:#181818;stroke-width:1.0;" x1="1482.2827" x2="1482.2827" y1="1050.4014" y2="1065.4014"/><polygon fill="#181818" points="1478.2827,1055.4014,1482.2827,1065.4014,1486.2827,1055.4014,1482.2827,1059.4014" style="stroke:#181818;stroke-width:1.0;"/><line style="stroke:#181818;stroke-width:1.0;" x1="1482.2827" x2="1482.2827" y1="1231.3076" y2="1236.3076"/><line style="stroke:#181818;stroke-width:1.0;" x1="1482.2827" x2="1782.543" y1="1236.3076" y2="1236.3076"/><line style="stroke:#181818;stroke-width:1.0;" x1="1782.543" x2="1782.543" y1="1236.3076" y2="1251.3076"/><polygon fill="#181818" points="1778.543,1241.3076,1782.543,1251.3076,1786.543,1241.3076,1782.543,1245.3076" style="stroke:#181818;stroke-width:1.0;"/><line style="stroke:#181818;stroke-width:1.0;" x1="1482.2827" x2="1482.2827" y1="947.4326" y2="952.4326"/><line style="stroke:#181818;stroke-width:1.0;" x1="1482.2827" x2="1782.543" y1="952.4326" y2="952.4326"/><line style="stroke:#181818;stroke-width:1.0;" x1="1782.543" x2="1782.543" y1="952.4326" y2="967.4326"/><polygon fill="#181818" points="1778.543,957.4326,1782.543,967.4326,1786.543,957.4326,1782.543,961.4326" style="stroke:#181818;stroke-width:1.0;"/><line style="stroke:#181818;stroke-width:1.0;" x1="1782.543" x2="1782.543" y1="1275.3076" y2="1292.0181"/><line style="stroke:#181818;stroke-width:1.0;" x1="1782.543" x2="364.9375" y1="1292.0181" y2="1292.0181"/><line style="stroke:#181818;stroke-width:1.0;" x1="364.9375" x2="364.9375" y1="1292.0181" y2="1307.0181"/><polygon fill="#181818" points="360.9375,1297.0181,364.9375,1307.0181,368.9375,1297.0181,364.9375,1301.0181" style="stroke:#181818;stroke-width:1.0;"/><line style="stroke:#181818;stroke-width:1.0;" x1="364.9375" x2="364.9375" y1="1340.9868" y2="1345.9868"/><line style="stroke:#181818;stroke-width:1.0;" x1="364.9375" x2="131.5059" y1="1345.9868" y2="1345.9868"/><line style="stroke:#181818;stroke-width:1.0;" x1="131.5059" x2="131.5059" y1="1345.9868" y2="1360.9868"/><polygon fill="#181818" points="127.5059,1350.9868,131.5059,1360.9868,135.5059,1350.9868,131.5059,1354.9868" style="stroke:#181818;stroke-width:1.0;"/><text fill="#000000" font-family="sans-serif" font-size="18" lengthAdjust="spacing" textLength="79.4795" x="90.7661" y="66.75">&#1057;&#1090;&#1091;&#1076;&#1077;&#1085;&#1090;</text><text fill="#000000" font-family="sans-serif" font-size="18" lengthAdjust="spacing" textLength="187.8486" x="316.739" y="66.75">lms (&#1086;&#1085;&#1083;&#1072;&#1081;&#1085;-&#1096;&#1082;&#1086;&#1083;&#1072;)</text><text fill="#000000" font-family="sans-serif" font-size="18" lengthAdjust="spacing" textLength="121.8604" x="742.6321" y="66.75">PGS: &#1055;&#1083;&#1072;&#1090;&#1105;&#1078;</text><text fill="#000000" font-family="sans-serif" font-size="18" lengthAdjust="spacing" textLength="79.2773" x="1101.3281" y="66.75">&#1069;&#1082;&#1074;&#1072;&#1081;&#1077;&#1088;</text><text fill="#000000" font-family="sans-serif" font-size="18" lengthAdjust="spacing" textLength="185.5898" x="1377.4709" y="66.75">PGS: &#1060;&#1080;&#1089;&#1082;&#1072;&#1083;&#1080;&#1079;&#1072;&#1094;&#1080;&#1103;</text><text fill="#000000" font-family="sans-serif" font-size="18" lengthAdjust="spacing" textLength="43.7256" x="1779.8638" y="66.75">&#1054;&#1060;&#1044;</text><!--SRC=[hLPTIoDN6BwVNt5WBpQXyMDjNTODKZIP4MbhHUr5hyfiSjHXaqp8ZBM1N6ZiraBiBYqBBOLkAWYzAeofMRFH97_Xd7_KvtrdOcAIbLqmId3cl9_FyxpdzQ5Ol8-FyL28vVMlrgOylvoJGX-gjcgehhfK7No_4wgd3rHN_wIQ-b0V2hphgIiLwAgkuGoF5_XkiLiBtaB_63q5C6iXJ03VbceYL6p-iobrfdwFJrDIzJTUzeswo1ceZc2_jbZA-CxtZbyMQSVUATbvAgihl7qddxCBqXCnL7MahdHj1kcxLA1wImL4aLyFlnEBWX-GQ0PXK9ok8lErhf7n_M3eEpwmKwUZs9rpSnt2Rke-WIJ2ueRXFNSAHPlmUMPddk-KtBr2DkNct99uOF5doCBRjRFklbFO4TjspfD39tsmbqTZc4lMdBKyoT8jPMKfiffBFRQMvoTOWRkyMyWkJoZjiJbxXyDmzDIJXTcvfU4-8X7SibhWpmIhBI9cl89P-Z6CoWChRJso7bNKAMWu0WDDrT7LYk7vTiatdghVT8qu1741QAkEyAIF1BWD1Fsb3y1gBGcVEfb0OWru74225ttV0U57HWp73OxLeYEGZ00u4FJx2yieKEyuGX1FKgNc4slUNAZaygJ-Bl9UiKLdIlyCSv9t4AyW_HyuQh5IK3Pw6aqjL4EihsmQCPJOXISwJa1kiBp6Jv0GgrcPBxg-B6JAKr_8SfITfL21urE13iDOlwgtbB7EunMsYsxqYK1oWlAQuE9X0wWq4ZHw-YHfEDleuK_CxqjzZ8u1KfDgF6USpza7by7dSU7loW9C0M7S409yS98EuEOqD55DUADZJ0K_NFAzS48HT3K99yztYuQ4uX671h4QHZf5bXUShzClkZTe2tV6khcMNbrRWN7i4q7J5x9EXWtnzPx_pFq1qCX2rjcEX799f76esmm2wiD8CfoDcWKmOa20FWfHjZurvwtvYlfts7qOuXl14A4i3c9Qlmm3zcMacX74RsvPlHBi7-BS9EME8NmNqOHQ_HP4cz-aKgQPDjF9FgJ0u2B2O6nKPg9LWfTN8UG9kD75FaB409SmRXsKdlCTs0xt15iLxN9U5lnfRo-JaJ8hiyanbZ-kcxIP-d9rBMpcGySjZDBbI_hofd6UWsFKsw5n8pL7vzGmBwn3lcvwT7r030s8Xsw9pa2lBAlHkJkRj13qAnB8ARO5xRnhlgm6AA6C9lPfLDCBHZ_0xTDZhg9x8Y7KNzYPfmd1hNLu_Dh0aAwpDtZgCJ-DFZzHp8Q0mCxKwr2w5iGxMmdVL8oIB4hRPtnepVyNhbqkedyfXM6IupozjqqXMDN_XEdfu60qTlyVYJ5bKoMXuwBOC5TMDxVC3JETcAG_551FHYwJjLUI6UaK_UcIt74yNvP8V48CooyHOSCC3rDEiXwj9xfgljimjpQ-JV0X4zIWIT07zCy0xNTtUpiiQmnjv6R1XAYB_Lqd9pySACUx6HfHSFq-PX-nSqWZRH1RuvYySMwfl7sp8d5ydRnZyORZT0NZuucHMZVgeyKhyxQJIneyCly3]--></g></svg>